<?xml version="1.0" encoding="UTF-8" standalone="no"?><svg xmlns="http://www.w3.org/2000/svg" xmlns:xlink="http://www.w3.org/1999/xlink" fill="#000000" height="114.8" preserveAspectRatio="xMidYMid meet" version="1" viewBox="63.5 192.6 373.1 114.8" width="373.1" zoomAndPan="magnify"><g fill="#ffffff" id="change1_1"><path d="M188.37,304.79c0.67,0,1.21,0.54,1.21,1.21c0,0.67-0.54,1.21-1.21,1.21H77.72c-3.92,0-7.48-1.61-10.07-4.19 c-2.59-2.58-4.19-6.15-4.19-10.07v-21.8c0-0.67,0.54-1.21,1.21-1.21c0.67,0,1.21,0.54,1.21,1.21v21.8c0,3.25,1.33,6.21,3.48,8.36 c2.14,2.15,5.1,3.48,8.36,3.48H188.37z M434.11,263.42c0-0.67,0.54-1.21,1.21-1.21c0.67,0,1.21,0.54,1.21,1.21v29.53 c0,3.92-1.61,7.48-4.19,10.07l0,0c-2.59,2.59-6.15,4.19-10.07,4.19h-41.94c-0.67,0-1.21-0.54-1.21-1.21c0-0.67,0.54-1.21,1.21-1.21 h41.94c3.26,0,6.22-1.33,8.36-3.47l0,0c2.14-2.14,3.47-5.1,3.47-8.36V263.42z"/><path d="M422.28,200.37H77.72c-1.84,0-3.51,0.75-4.72,1.96c-1.21,1.21-1.96,2.88-1.96,4.72v85.91 c0,1.81,0.73,3.46,1.9,4.66l0.06,0.06c1.21,1.21,2.88,1.96,4.72,1.96h344.55c1.84,0,3.51-0.75,4.72-1.96 c1.21-1.21,1.96-2.88,1.96-4.72v-85.91c0-1.84-0.75-3.51-1.96-4.72C425.79,201.12,424.12,200.37,422.28,200.37 M77.72,197.94 h344.55c2.5,0,4.77,1.03,6.43,2.68c1.65,1.65,2.68,3.92,2.68,6.43v85.91c0,2.5-1.02,4.78-2.67,6.43c-1.65,1.65-3.93,2.67-6.43,2.67 H77.72c-2.5,0-4.78-1.02-6.43-2.67l-0.07-0.07c-1.61-1.65-2.61-3.89-2.61-6.36v-85.91c0-2.5,1.02-4.78,2.67-6.43 S75.22,197.94,77.72,197.94z"/><path clip-rule="evenodd" d="M97.8 192.59L195.39 192.59 185.51 205.72 87.92 205.72z" fill-rule="evenodd"/><path clip-rule="evenodd" d="M204.81 192.59L213.72 192.59 203.84 205.72 194.93 205.72z" fill-rule="evenodd"/><path clip-rule="evenodd" d="M220.76 192.59L229.68 192.59 219.79 205.72 210.88 205.72z" fill-rule="evenodd"/><path clip-rule="evenodd" d="M236.71 192.59L245.63 192.59 235.74 205.72 226.83 205.72z" fill-rule="evenodd"/><path clip-rule="evenodd" d="M252.67 192.59L261.58 192.59 251.69 205.72 242.78 205.72z" fill-rule="evenodd"/><path clip-rule="evenodd" d="M313.44 294.28L322.35 294.28 312.47 307.41 303.55 307.41z" fill-rule="evenodd"/><path clip-rule="evenodd" d="M329.39 294.28L338.3 294.28 328.42 307.41 319.5 307.41z" fill-rule="evenodd"/><path clip-rule="evenodd" d="M345.34 294.28L354.25 294.28 344.37 307.41 335.46 307.41z" fill-rule="evenodd"/><path clip-rule="evenodd" d="M361.29 294.28L370.21 294.28 360.32 307.41 351.41 307.41z" fill-rule="evenodd"/></g></svg>