<?xml version="1.0" encoding="UTF-8" standalone="no"?><svg xmlns="http://www.w3.org/2000/svg" fill="#000000" height="378.37pt" version="1.1" viewBox="0 0 499.98 378.37" width="499.98pt">
 <g id="surface1">
  <g id="change1_1"><path d="m316.84 334.76c-0.29-0.03-0.6-0.05-0.92-0.05h-76.87-39.62c-12.34 0-24.81 0.64-37.13-0.21-6.55-1.39-12.26-2.75-17.7-7.04-2.96-2.32-5.89-5.25-7.8-8.23-1.44-2.25-2.6-5.53-4.27-7.92 0.02-0.15-0.16-0.66-0.56-1.58-0.33-1.01-0.63-2.03-0.88-3.06-0.61-2.28-0.77-4.56-0.88-6.91-0.28-6.15-0.04-12.35-0.03-18.5 0.01-13.23 0-26.46 0-39.68v-137.07c7.2 7.2 14.41 14.42 21.62 21.62 8.63 8.63 17.56 21.25 31.43 18.37 10.23-2.14 16.86-10.77 18.18-20.76 0.67-5.06-1.68-10.35-4.75-14.2-4.96-6.22-11.36-11.602-16.98-17.231-11.64-11.645-23.29-23.289-34.93-34.93l-16.77-16.77c-5.19-5.187-10.02-9.718-17.68-10.394-5.84-0.52-11.968 1.308-16.355 5.289-6.172 5.598-11.886 11.789-17.777 17.684-11.645 11.64-23.289 23.285-34.934 34.929-5.589 5.59-11.179 11.176-16.769 16.763-4.625 4.63-8.387 9.15-9.082 15.88-1.106 10.69 6.586 19.8 16.195 23.26 13.688 4.94 23.574-8.12 31.965-16.51 7.668-7.67 15.336-15.33 23.004-23v180.04c0 13.56-0.024 26.58 4.433 39.56 3.993 11.62 10.72 22.15 19.3 30.91 9.06 9.26 20.58 15.81 32.93 19.55 14.41 4.37 29.92 3.77 44.79 3.77h127.93c12.36 0 21.04-9.82 21.34-21.81 0.3-11.95-8.96-20.98-20.43-21.77" fill="#d24896"/></g>
  <g id="change1_2"><path d="m498.07 277.03c-6.09-13.91-23.27-17.4-34.46-7.88-0.27 0.21-0.54 0.43-0.8 0.69l-34.02 34.02v-180.04c0-13.56 0.02-26.578-4.43-39.558-4-11.625-10.72-22.149-19.3-30.914-9.06-9.258-20.58-15.809-32.93-19.551-14.41-4.367-29.92-3.77-44.8-3.77h-99.93-23.99c-5.6 0-10.83 0.231-15.71 3.301-7.65 4.82-10.7 14.363-9.18 22.977 1.51 8.535 8.2 15.605 16.86 16.961 7.08 1.113 14.62 0.394 21.77 0.394h25.63c32.77 0 65.54 0.113 98.32-0.144 3.98-0.032 7.95 0.078 11.92 0.351 6.55 1.383 12.27 2.75 17.72 7.035 2.9 2.286 6.1 5.59 7.8 8.235 1.49 2.324 2.62 5.465 4.28 7.879-0.09 0.058 0.09 0.589 0.55 1.621 0.33 1.011 0.62 2.033 0.88 3.063 0.61 2.28 0.77 4.57 0.87 6.91 0.28 6.15 0.05 12.35 0.04 18.5-0.02 13.23 0 26.45 0 39.68v137.07c-7.21-7.21-14.41-14.41-21.62-21.63-8.63-8.62-17.56-21.24-31.43-18.35-10.23 2.13-16.86 10.76-18.18 20.75-0.67 5.06 1.68 10.35 4.75 14.2 4.96 6.22 11.35 11.61 16.98 17.23 11.64 11.65 23.29 23.29 34.93 34.94 5.59 5.59 11.18 11.17 16.77 16.77 5.19 5.18 10.02 9.71 17.67 10.39 5.85 0.52 11.97-1.31 16.36-5.29 6.18-5.6 11.89-11.79 17.78-17.68 11.64-11.65 23.29-23.29 34.94-34.94 3.72-3.72 7.44-7.45 11.17-11.17 3.76-3.76 8.17-7.35 11.17-11.77 4.16-6.15 4.57-13.56 1.62-20.28" fill="#d24896"/></g>
  <g id="change2_1"><path d="m300.64 304.71h-76.86-39.63c-12.79 0-25.72 0.7-38.49-0.3 0.67 4.91 1.33 9.82 2 14.73 0.02-0.01 0.05-0.02 0.08-0.02 6.58-2.21 7.72-12.84 0-14.47-6.85-1.44-12.77-2.74-18.42-7.19-2.95-2.32-5.88-5.25-7.79-8.23-1.78-2.76-3.1-7.1-5.49-9.41 1.38 2.1 1.6 2.07 0.66-0.09-0.34-1.01-0.63-2.03-0.89-3.06-0.61-2.28-0.77-4.56-0.87-6.91-0.28-6.15-0.05-12.35-0.04-18.5 0.02-13.23 0-26.46 0-39.68v-155.18c-4.27 1.768-8.54 3.538-12.8 5.303 11.47 11.481 22.95 22.953 34.43 34.43 8.62 8.627 17.55 21.247 31.42 18.367 10.23-2.14 16.86-10.77 18.19-20.758 0.66-5.058-1.69-10.351-4.76-14.199-4.96-6.219-11.35-11.605-16.98-17.234-11.64-11.645-23.29-23.289-34.93-34.93l-16.77-16.77c-5.18-5.1871-10.02-9.7184-17.673-10.394-5.843-0.51969-11.968 1.3084-16.359 5.2889-6.172 5.5981-11.883 11.789-17.777 17.684-11.645 11.64-23.286 23.285-34.93 34.929-5.59 5.59-11.18 11.176-16.77 16.766-4.6246 4.625-8.3902 9.144-9.0855 15.875-1.1055 10.692 6.5859 19.802 16.2 23.262 13.686 4.94 23.573-8.12 31.96-16.508 11.937-11.938 23.871-23.871 35.808-35.809-4.269-1.765-8.539-3.535-12.804-5.301v198.15c0 13.56-0.02 26.58 4.437 39.56 3.988 11.62 10.715 22.15 19.293 30.91 9.06 9.26 20.59 15.81 32.93 19.55 14.42 4.37 29.92 3.77 44.8 3.77h127.92c12.37 0 21.05-9.82 21.34-21.81 0.31-12.27-9.45-21.46-21.35-21.82-9.67-0.28-9.64 14.72 0 15 5.88 0.18 7.18 5.14 5.88 9.69-0.49 1.74-1.76 3.08-3.93 3.73-2.36 0.7-5.42 0.21-7.94 0.21h-13.99-99.94c-15.08 0-30.61 1.01-45.42-2.34-12.34-2.8-23.06-9.5-31.67-18.64-7.985-8.49-13.181-19.24-15.853-30.5-3.25-13.68-1.507-28.86-1.507-42.82v-182.64c0-6.541-8.176-9.931-12.805-5.302-11.477 11.476-22.953 22.953-34.43 34.429-4.5 4.5-9.129 10.895-14.676 14.039-2.574 1.454-5.574-0.519-7.379-2.324-1.687-1.683-2.652-4.441-1.617-6.676 1.196-2.582 3.864-4.504 5.832-6.472 3.262-3.262 6.52-6.524 9.782-9.782l34.933-34.933c5.586-5.59 11.176-11.18 16.766-16.77 3.594-3.589 7.687-9.632 13.523-6.82 2.828 1.367 5.111 4.637 7.291 6.82 2.8 2.797 5.59 5.59 8.39 8.387 6.05 6.055 12.11 12.109 18.16 18.164 11.65 11.645 23.29 23.289 34.94 34.934 2.63 2.629 6.93 5.566 6.09 9.594-0.64 3.085-3.21 5.312-6.14 6.14-2.72 0.782-4.89-1.398-6.78-3.281-5.05-5.051-10.1-10.102-15.15-15.149-10.1-10.101-20.2-20.203-30.3-30.3-4.63-4.629-12.802-1.239-12.802 5.304v163.12c0 13.08 0.032 26.16-0.023 39.24-0.023 5.85-0.164 11.71 0.665 17.52 0.37 2.54 0.93 4.99 1.69 7.44 0.51 1.66 1.1 3.65 1.98 5.14 0.39 0.51 0.78 1.02 1.17 1.52-0.95-1.26-1.14-1.36-0.56-0.31 7.67 16.22 21.79 25.43 38.94 29.05v-14.47c-0.03 0.01-0.06 0.02-0.09 0.03-8.22 2.76-6.44 14.07 1.99 14.73 12.12 0.95 24.37 0.3 36.51 0.3h39.63 78.85c9.67 0 9.67-15-0.01-15" fill="#5ce1e6"/></g>
  <g id="change2_2"><path d="m447.54 239.84c-15.61 15.61-31.22 31.22-46.83 46.82l12.81 5.31v-198.15c0-13.562 0.02-26.578-4.44-39.558-3.99-11.625-10.72-22.149-19.29-30.914-9.07-9.258-20.59-15.809-32.94-19.547-14.41-4.3713-29.92-3.7737-44.79-3.7737-33.31 0.000044-66.62 0.000044-99.94 0.000044h-23.98c-5.61 0-10.84 0.23047-15.71 3.3008-7.66 4.8203-10.71 14.363-9.18 22.977 1.5 8.535 8.2 15.605 16.85 16.961 7.08 1.113 14.63 0.394 21.78 0.394h25.62c32.77 0 65.55 0.113 98.32-0.144 4.44-0.036 8.87 0.093 13.29 0.441-0.66-4.91-1.33-9.82-1.99-14.73-0.03 0.007-0.05 0.019-0.07 0.031-6.19 2.512-8.05 12.777 0 14.461 6.84 1.437 12.77 2.746 18.41 7.183 2.9 2.286 6.1 5.59 7.8 8.235 1.83 2.851 3.12 6.953 5.49 9.406-1.39-2.094-1.61-2.063-0.66 0.094 0.34 1.011 0.63 2.031 0.89 3.066 0.61 2.277 0.76 4.563 0.87 6.906 0.28 6.153 0.04 12.348 0.04 18.5-0.02 13.231 0 26.451 0 39.681v155.18c4.27-1.77 8.53-3.54 12.8-5.31-11.48-11.47-22.95-22.95-34.43-34.43-8.62-8.62-17.56-21.24-31.43-18.35-10.22 2.13-16.85 10.76-18.18 20.75-0.67 5.06 1.68 10.35 4.75 14.2 4.97 6.22 11.36 11.61 16.98 17.23l34.94 34.94c5.58 5.59 11.17 11.17 16.77 16.77 5.18 5.18 10.02 9.71 17.67 10.39 5.84 0.52 11.97-1.31 16.36-5.29 6.17-5.6 11.88-11.79 17.77-17.68l34.94-34.94c3.72-3.72 7.45-7.45 11.18-11.17 3.75-3.76 8.17-7.35 11.17-11.77 4.16-6.15 4.56-13.56 1.61-20.28-6.24-14.24-24.09-17.57-35.25-7.19-7.1 6.61 3.53 17.19 10.6 10.61 4.98-4.63 11.78 0.15 11.64 6.16-0.03 1.3-1.17 2.59-2 3.48-2.68 2.89-5.59 5.59-8.38 8.38l-18.17 18.17c-11.64 11.64-23.28 23.29-34.93 34.93-2.79 2.79-5.59 5.59-8.39 8.38-1.65 1.66-3.1 3.11-5.56 3.32-2.08 0.19-3.94-0.54-5.47-1.92-3.4-3.08-6.53-6.53-9.78-9.78-11.65-11.65-23.29-23.29-34.94-34.93-5.58-5.59-11.17-11.18-16.76-16.77-2.79-2.8-5.59-5.59-8.38-8.39-1.32-1.31-3.2-2.85-3.4-4.87-0.64-6.16 6.91-10.56 11.64-6.16 11.85 11.03 22.97 22.98 34.43 34.43l12.39 12.39c4.63 4.63 12.81 1.24 12.81-5.3v-163.11c0-13.09-0.03-26.17 0.02-39.251 0.03-5.851 0.16-11.711-0.67-17.515-0.36-2.547-0.93-4.989-1.69-7.446-0.5-1.652-1.09-3.644-1.97-5.14-0.39-0.504-0.78-1.012-1.17-1.516 0.95 1.25 1.13 1.352 0.56 0.305-7.67-16.207-21.8-25.449-38.94-29.039v14.461c0.02-0.008 0.05-0.02 0.08-0.028 7.8-3.171 6.77-14.043-2-14.734-16.01-1.258-32.33-0.301-48.38-0.301h-49.43-49.28c-2.82 0-6.22 0.414-8.9-0.008-1.21-0.187-2.58-0.82-2.92-1.097-2.08-1.742-2.46-3.571-2.39-6.535 0.05-1.606 1.15-3.977 2.19-4.739 3.69-2.691 11.29-1.25 16.14-1.25h49.96 49.97c15.4 0 31.33-1.117 46.63 1.035 21.35 3.008 38.73 15.836 48.7 34.79 4.52 8.574 6.8 18.289 7.1 27.937 0.44 14.031 0.02 28.141 0.02 42.181v171c0 6.54 8.17 9.93 12.8 5.3 15.61-15.61 31.22-31.21 46.82-46.82 6.85-6.84-3.76-17.45-10.6-10.61" fill="#5ce1e6"/></g>
 </g>
</svg>